<svg fill="#000000" version="1.1" id="Layer_1" xmlns="http://www.w3.org/2000/svg" xmlns:xlink="http://www.w3.org/1999/xlink" viewBox="0 0 300 300" enable-background="new 0 0 300 300" xml:space="preserve"><g id="SVGRepo_bgCarrier" stroke-width="0"></g><g id="SVGRepo_tracerCarrier" stroke-linecap="round" stroke-linejoin="round"></g><g id="SVGRepo_iconCarrier"> <path d="M179.876,56.582L179.876,56.582l-0.019,0.012c-1.496,0.923-9.228,4.102-17.887-4.015c-3.476-3.536-5.125-8.916-5.125-8.916 s3.698,1.666,6.585,0.553c1.954-0.757,3.9-3.094,4.271-3.558c0.896-1.018,2.015-1.879,3.321-2.471 c5.094-2.309,11.103-0.003,13.421,5.141C186.689,48.337,184.64,54.115,179.876,56.582z M216.586,29.741 c6.11,0,11.064,4.954,11.064,11.064s-4.954,11.064-11.064,11.064s-11.064-4.954-11.064-11.064S210.476,29.741,216.586,29.741z M255.737,60.147c5.327,0,9.646,4.319,9.646,9.646s-4.319,9.646-9.646,9.646s-9.646-4.319-9.646-9.646S250.41,60.147,255.737,60.147 z M107,9v118h187V9H107z M222,117L222,117h-34V99.438c0-4.108,3.33-7.438,7.438-7.438h19.125c4.108,0,7.438,3.33,7.438,7.438V117z M196.975,80.99c0.014-4.514,3.662-8.163,8.161-8.157c4.507-0.006,8.16,3.642,8.167,8.157c-0.007,4.501-3.659,8.152-8.167,8.168 C200.637,89.141,196.99,85.49,196.975,80.99z M284,117h-5h-1.5H276V92.77c0-2.61-1.016-5.064-2.86-6.909 c-1.844-1.845-4.296-2.861-6.905-2.861c-0.001,0-0.001,0-0.002,0l-18.467,0.001c-5.385,0-9.766,4.383-9.766,9.771V117h-3V92.772 c0-5.731,3.794-10.591,9-12.203V66.063C244,59.953,239.047,55,232.938,55h-31.875c-4.883,0-9.019,3.168-10.486,7.557 C188.924,61.575,187,61,184.938,61h-20.875c-5.046,0-9.294,3.382-10.624,8H156c2.209,0,4,1.791,4,4s-1.791,4-4,4h-9v-8h-8 c-3.391,0.486-6,3.474-6,7v16c0,3.406,3.063,7,7.5,7H153v8.917c0,2.281,1.794,4.136,4,4.136s4-1.855,4-4.136V93.275 c0-1.806-1.47-3.275-3.275-3.275H147v-3h10.725c3.46,0,6.275,2.815,6.275,6.275v14.642c0,3.935-3.141,7.136-7,7.136 c-1.487,0-2.865-0.479-4-1.288V117h-36V19h167V117z M149.487,57.276c0-4.693-3.806-8.496-8.498-8.496 c-4.69,0-8.497,3.802-8.497,8.496c0,4.69,3.808,8.504,8.497,8.504C145.681,65.781,149.487,61.966,149.487,57.276z M127.967,77 c-3.409,0-6.094,3.102-5.386,6.637C123.1,86.229,125.53,88,128.174,88H130V77H127.967z M65.312,139.518 c11.695,0.087,21.238-9.348,21.25-21.05c0.06-11.682-9.372-21.21-21.082-21.277c-11.682-0.037-21.19,9.39-21.262,21.075 C44.171,129.968,53.591,139.493,65.312,139.518z M247.193,229.508L199.25,174.31c-3.392-3.905-8.906-5.198-13.679-3.206 l-37.747,15.744c-1.842-2.234-4.159-4-6.737-5.229l-1.263-4.931c-2.157-8.425-10.842-13.409-19.204-11.02l-31.732,9.065 l-4.159-13.555c-3.691-12.034-16.439-18.796-28.473-15.105c-3.588,1.101-6.692,3.021-9.204,5.474 C39.268,141.316,27.011,135,13.713,135c-0.109,0-0.22,0-0.33,0.001l-6.018,0.047L38.292,294H181.18l-19.415-65.543L182,219.192V281 c0,6.627,5.373,12,12,12s12-5.373,12-12v-62.319l23.074,26.566c2.373,2.731,5.709,4.131,9.064,4.131c2.79,0,5.593-0.968,7.864-2.94 C251.007,242.091,251.539,234.512,247.193,229.508z M46.534,284L19.596,145.548c10.958,2.063,20.252,9.789,24.119,20.554 l15.982,44.493l70.306-20.522c5.057-1.477,10.385,1.431,11.881,6.48L167.787,284H46.534z"></path> </g></svg>